<svg version="1" xmlns="http://www.w3.org/2000/svg" width="933.333" height="933.333" viewBox="0 0 700.000000 700.000000"><path d="M323.5.6c-1.6.2-7.7.9-13.5 1.5-46.2 4.8-96.2 21.6-137.4 45.9-4.7 2.8-8.6 5.3-8.6 5.6 0 .5 3.4-1.4 9.7-5.4 2.1-1.3 2.2-1.2 2.8 2 .9 4.8-1.2 19.7-3.9 27.7-5.1 15.1-16.7 30.3-29.7 39-14.3 9.5-33.3 14.2-49.8 12.3-5.2-.6-9.9-1.6-10.4-2.1-.8-.8-.3-1.9 1.3-3.8 1.4-1.6.8-1.2-1.2.7-5 4.8-22 27.7-29.5 39.9-29.5 47.3-47 99.4-52.3 155.6-1.3 14.2-1.3 46.6.1 62C6 438 25.8 494.6 57.2 542.3c59.6 90.3 156 147.7 263.6 156.8 18 1.5 57.4.7 73.7-1.5 71.9-9.8 134-38.2 188.5-86.2C638.6 562.5 678.2 494 693 421c5.6-27.8 6.4-36.7 6.4-71 0-33.6-.8-42.8-6-69C669.1 159.1 580.5 58.3 462.5 18.3 441 11 419 5.9 394.5 2.4 384.1 1 330.9-.4 323.5.6zm275 243.7c10.6 2 24.8 5.6 25.9 6.7.7.7-3.3 15.2-6.4 23.6l-1 2.5-6.3-4.5c-8.8-6.3-19.8-11.2-29.2-13.1-26.7-5.4-53.7 11.5-73.5 46.1-14.7 25.7-25.3 63-25.4 89.4-.1 21.4 4.9 32.4 17.6 38.9 6.1 3.1 7.4 3.4 15.3 3.3 4.8 0 9.2-.5 9.7-1 .6-.6 6.4-18.1 13-38.9 13.4-42.8 13.5-42.9 6.8-49.5l-3.8-3.8h38.7c35.8.1 38.4.2 35.6 1.7-4.1 2.1-9.3 7.2-11.3 10.8-.9 1.6-7 20.3-13.7 41.5l-12.1 38.5-5.4 2.7c-11.2 5.5-30.1 10.8-45.5 12.9-12.4 1.6-29.6.6-41.6-2.4-28.4-7.3-43-22.1-49.6-50.5-2.6-11.2-2.3-35.2.5-48.7 7.2-33.9 21.9-59.1 45.6-78.4 19.5-15.8 39.5-24.6 65.6-28.7 10.6-1.7 39.2-1.1 50.5.9zm-283.3 2.4c15.7 4.4 26.3 12.4 31.4 23.6 3.7 8.2 4.4 20.3 1.9 30.8-9.2 37.6-33.9 60.2-75.7 69-8 1.7-14.5 2.3-29.2 2.5l-18.9.3-9.9 31.3c-5.8 18.6-9.8 33-9.8 35.5 0 3 .7 5 2.6 7.2l2.6 3.1h-70.6l3.4-2.5c4.6-3.4 8.4-9.3 10.9-16.8C168.1 387.4 208 257 208 254c0-2.7-.8-4.8-2.6-7l-2.7-3.1 52.4.3c49.7.4 52.8.5 60.1 2.5zm96.2 47.2c17.5 7.7 21 26.6 7.8 42.3-4.7 5.6-17.4 14.2-29.8 20.2l-12.1 5.8.9 5.1c1.8 9.7 10.5 29.2 16.2 36.2 2.4 3 2.5 3 4 1 1.8-2.3 5.6-13.7 5.6-16.9 0-1.2-.9-3.8-1.9-5.9l-1.9-3.7h24.1l-.6 5.3c-1.3 10.7-8.2 25.1-15.2 31.7-1.4 1.3-2.5 2.9-2.5 3.5 0 3.5 19.1 17.6 35.4 26L452 450h-47.8l-4.9-3.6c-2.6-2-6.7-5.5-9.1-7.7-3.9-3.9-4.4-4.1-6.5-2.7-21.6 13.6-41 19-58.4 16.1-19.4-3.3-32.6-17-34-35.4-1.9-24.9 12.8-42.4 46.3-54.8l11-4.1.2-8.6c.7-31.2 14.9-52.3 38.7-57.1 6.8-1.4 18.8-.5 23.9 1.8z"/><path d="M259.1 263.2c-13.8 43.4-29 93.2-28.6 93.6 1.2 1.2 11.1 1.4 16.8.2 21.9-4.2 37.5-22.3 45.8-52.9 2.6-9.6 3.5-23.2 2-28.9-.7-2.3-2.6-5.9-4.4-7.9-5-5.6-9.6-7.3-20.9-7.3h-9.6l-1.1 3.2zM390.5 303.9c-9.5 5.7-15.5 19.8-15.5 36 0 4.5.2 8.1.5 8.1 1.7 0 9-5.7 15.2-11.9 15.8-15.9 19.3-34.1 6.6-34.1-2.1 0-5.2.8-6.8 1.9zM343.5 377.8c-7.8 4.7-16.5 13.4-19.5 19.7-1.8 3.8-2.4 6.7-2.4 12 0 22 20.9 29.8 47.2 17.5 4.4-2.1 6.1-3.4 5.6-4.2-.4-.7-2.1-3.2-3.7-5.6-5-7.5-13.5-25.2-16.4-34.4-1.5-4.8-3.2-8.8-3.8-8.7-.5 0-3.7 1.7-7 3.7zM155.7 58.5c-3.7 2.5-6.7 4.8-6.7 5 0 .3 3.2-1.6 7-4.1 6.1-4.1 7.7-5.4 6.7-5.4-.1 0-3.3 2-7 4.5zM142.9 67.7c-1.3 1.6-1.2 1.7.4.4.9-.7 1.7-1.5 1.7-1.7 0-.8-.8-.3-2.1 1.3zM138.9 70.7c-1.3 1.6-1.2 1.7.4.4 1.6-1.3 2.1-2.1 1.3-2.1-.2 0-1 .8-1.7 1.7zM134.9 73.7c-1.3 1.6-1.2 1.7.4.4 1.6-1.3 2.1-2.1 1.3-2.1-.2 0-1 .8-1.7 1.7zM127 80.1l-4.5 4.1 4.8-3.7c4.1-3.3 5.3-4.5 4.5-4.5-.2 0-2.3 1.8-4.8 4.1zM115.9 89.7l-3.4 3.8 3.8-3.4c2-1.9 3.7-3.6 3.7-3.8 0-.8-.8 0-4.1 3.4zM102.5 102.2C89.9 115.3 85.6 120 86.1 120c.3 0 5.8-5.6 12.3-12.5 6.5-6.9 11.6-12.5 11.4-12.5-.2 0-3.5 3.3-7.3 7.2z"/></svg>