<svg width="16" height="28" viewBox="0 0 16 28" fill="none" xmlns="http://www.w3.org/2000/svg">
<path d="M15.3882 0.611838C15.7799 1.00372 16 1.53515 16 2.08926C16 2.64338 15.7799 3.17481 15.3882 3.56668L5.04411 13.9107L15.3882 24.2548C15.7688 24.6489 15.9795 25.1768 15.9747 25.7247C15.9699 26.2726 15.7502 26.7967 15.3627 27.1842C14.9753 27.5716 14.4511 27.7914 13.9032 27.7962C13.3553 27.8009 12.8274 27.5903 12.4333 27.2096L0.611839 15.3882C0.220079 14.9963 9.53674e-07 14.4649 9.53674e-07 13.9107C9.53674e-07 13.3566 0.220079 12.8252 0.611839 12.4333L12.4333 0.611838C12.8252 0.220078 13.3566 0 13.9107 0C14.4649 0 14.9963 0.220078 15.3882 0.611838Z" fill="white"/>
</svg>
