<svg width="18" height="14" viewBox="0 0 18 14" fill="none" xmlns="http://www.w3.org/2000/svg">
<path d="M10.875 11.125H0.75" stroke="#F9F9F9" stroke-width="1.5" stroke-linecap="round" stroke-linejoin="round"/>
<path d="M17.25 11.125H14.625" stroke="#F9F9F9" stroke-width="1.5" stroke-linecap="round" stroke-linejoin="round"/>
<path d="M12.75 13C13.7855 13 14.625 12.1605 14.625 11.125C14.625 10.0895 13.7855 9.25 12.75 9.25C11.7145 9.25 10.875 10.0895 10.875 11.125C10.875 12.1605 11.7145 13 12.75 13Z" fill="#003DA5" stroke="#F9F9F9" stroke-width="1.5" stroke-linecap="round" stroke-linejoin="round"/>
<path d="M4.875 2.875H0.75" stroke="#F9F9F9" stroke-width="1.5" stroke-linecap="round" stroke-linejoin="round"/>
<path d="M17.25 2.875H8.625" stroke="#F9F9F9" stroke-width="1.5" stroke-linecap="round" stroke-linejoin="round"/>
<path d="M6.75 4.75C7.78553 4.75 8.625 3.91053 8.625 2.875C8.625 1.83947 7.78553 1 6.75 1C5.71447 1 4.875 1.83947 4.875 2.875C4.875 3.91053 5.71447 4.75 6.75 4.75Z" fill="#003DA5" stroke="#F9F9F9" stroke-width="1.5" stroke-linecap="round" stroke-linejoin="round"/>
</svg>
