<svg xmlns="http://www.w3.org/2000/svg" viewBox="0 0 24 24"><path fill="none" stroke="#003DA7" stroke-width="2" stroke-miterlimit="10" d="M3.9 20.6v-.9c0-.5.1-.9.5-1.4l.1-.1c.8-.7 1.7-1.1 2.5-1.3 2-.7 4.1-1 6.3-.8 1.8.2 3.2.5 4.6 1.2.8.4 1.4.8 1.8 1.2.2.3.4.7.4 1.1v1.6c0 .3 0 .5-.2.6-.1.1-.3.2-.5.2h-2.8c-.3 0-.5-.1-.6-.2-.1-.1-.2-.4-.2-.6v-.4-1.2c0-.4-.2-.6-.4-.7-.6-.2-1.2-.4-2-.5-1.5-.1-2.8-.1-4.1.2-.1 0-.3 0-.5.1-.1 0-.3.1-.4.1-.1 0-.3.1-.3.1-.2.2-.2.5-.1.5V21c0 .3-.1.5-.2.6-.2.2-.4.2-.5.2H4.8c-.6 0-.8-.4-.8-.8-.1-.1-.1-.3-.1-.4z"/><path fill="none" stroke="#00A1E0" stroke-width="2" stroke-linecap="round" stroke-miterlimit="10" d="M6 12V4c0-.6.4-1 1-1h10c.6 0 1 .4 1 1v8"/><path fill="none" stroke="#00A1E0" stroke-width="2" stroke-miterlimit="10" d="M15 7H9M13 10H9"/></svg>