<svg width="25" height="25" viewBox="0 0 25 25" fill="none" xmlns="http://www.w3.org/2000/svg">
<path d="M16.5488 15.0312C16.6872 14.9391 16.8465 14.8829 17.0122 14.8679C17.1779 14.8528 17.3447 14.8793 17.4975 14.945L23.3925 17.5862C23.5912 17.6712 23.757 17.8181 23.8651 18.0051C23.9733 18.1922 24.018 18.4092 23.9925 18.6237C23.7983 20.0751 23.0836 21.4064 21.9813 22.3703C20.8791 23.3341 19.4642 23.8649 18 23.8637C13.4913 23.8637 9.16731 22.0727 5.97919 18.8846C2.79107 15.6964 1 11.3724 1 6.86374C0.998882 5.3995 1.5296 3.98468 2.49345 2.88241C3.45731 1.78014 4.78869 1.06544 6.24 0.871242C6.45454 0.845755 6.67157 0.890434 6.8586 0.998595C7.04562 1.10675 7.19259 1.27258 7.2775 1.47124L9.91875 7.37124C9.98365 7.52278 10.0101 7.68801 9.99568 7.85222C9.98129 8.01644 9.92652 8.17455 9.83625 8.31249L7.165 11.4887C7.07025 11.6317 7.01421 11.7968 7.00238 11.968C6.99055 12.1391 7.02333 12.3103 7.0975 12.465C8.13125 14.5812 10.3188 16.7425 12.4413 17.7662C12.5967 17.8401 12.7688 17.8721 12.9404 17.8592C13.112 17.8463 13.2773 17.7888 13.42 17.6925L16.5488 15.0312Z" stroke="#003DA5" stroke-linecap="round" stroke-linejoin="round"/>
</svg>
