<svg version="1.2" xmlns="http://www.w3.org/2000/svg" viewBox="0 0 18 20" width="16" height="18">
	<title>link-pdf-svg</title>
	<style>
		.s0 { fill: none;stroke: #003da5;stroke-linecap: round;stroke-linejoin: round;stroke-width: 1.5 } 
	</style>
	<path id="Layer" fill-rule="evenodd" class="s0" d="m1.5 10.5v-8.2q0-0.4 0.2-0.6 0.2-0.2 0.6-0.2h8.9l5.3 5.3v3.7"/>
	<path id="Layer" fill-rule="evenodd" class="s0" d="m11.3 1.5l-0.1 5.3h5.3"/>
	<path id="Layer" fill-rule="evenodd" class="s0" d="m1.5 17.3l1.5-0.1c0.4 0 0.8-0.1 1.1-0.4 0.2-0.3 0.4-0.7 0.4-1.1 0-0.3-0.2-0.7-0.4-1-0.3-0.3-0.7-0.5-1.1-0.5h-1.5v4.5"/>
	<path id="Layer" fill-rule="evenodd" class="s0" d="m17.3 14.3l-2.7-0.1v4.5"/>
	<path id="Layer" fill-rule="evenodd" class="s0" d="m16.9 16.9h-2.3"/>
	<path id="Layer" fill-rule="evenodd" class="s0" d="m9 18.8c0.6-0.1 1.2-0.3 1.6-0.7 0.4-0.4 0.6-1 0.6-1.6 0-0.6-0.2-1.2-0.6-1.6-0.4-0.4-1-0.7-1.6-0.7h-1.3v4.5z"/>
</svg>