<svg width="17" height="17" viewBox="0 0 17 17" fill="none" xmlns="http://www.w3.org/2000/svg">
<path d="M15.7157 11.59C15.5282 11.59 15.3694 11.6551 15.2392 11.7853C15.109 11.9155 15.0439 12.0744 15.0439 12.2619V15.4805H1.65376V12.2619C1.65376 12.0744 1.58866 11.9155 1.45845 11.7853C1.32825 11.6551 1.1694 11.59 0.981909 11.59C0.794416 11.59 0.635567 11.6551 0.505364 11.7853C0.37516 11.9155 0.310059 12.0744 0.310059 12.2619V16.1524C0.310059 16.3399 0.37516 16.4987 0.505364 16.6289C0.635567 16.7591 0.794416 16.8242 0.981909 16.8242H15.7157C15.9032 16.8242 16.0621 16.7591 16.1923 16.6289C16.3225 16.4987 16.3876 16.3399 16.3876 16.1524V12.2619C16.3876 12.0744 16.3225 11.9155 16.1923 11.7853C16.0621 11.6551 15.9032 11.59 15.7157 11.59ZM7.85665 12.3869C8.04415 12.5744 8.23685 12.6421 8.43476 12.59C8.63267 12.5379 8.76808 12.4702 8.84099 12.3869L12.6846 8.24641C12.8096 8.111 12.8695 7.94955 12.8643 7.76205C12.8591 7.57456 12.7888 7.41832 12.6534 7.29332C12.5179 7.16833 12.3565 7.11104 12.169 7.12145C11.9815 7.13187 11.8253 7.20478 11.7003 7.34019L9.01286 10.2151V1.52791C9.01286 1.34042 8.94776 1.18157 8.81756 1.05136C8.68735 0.921162 8.53371 0.85606 8.35664 0.85606C8.16914 0.85606 8.01029 0.921162 7.88009 1.05136C7.74989 1.18157 7.68479 1.34042 7.68479 1.52791V10.2307L4.99739 7.34019C4.87239 7.20478 4.71615 7.13447 4.52865 7.12926C4.34116 7.12406 4.17971 7.17874 4.0443 7.29332C3.90888 7.42873 3.83857 7.58758 3.83337 7.76987C3.82816 7.95215 3.88805 8.111 4.01305 8.24641L7.85665 12.3869Z" fill="#003DA7"/>
</svg>
