<svg version="1.2" xmlns="http://www.w3.org/2000/svg" viewBox="0 0 16 18" width="16" height="18">
	<title>link-download-svg</title>
	<style>
		.s0 { fill: #003da5 } 
	</style>
	<path fill-rule="evenodd" class="s0" d="m8.9 9.8l4-4c0.3-0.3 0.8-0.3 1.2 0 0.3 0.4 0.3 0.9 0 1.2l-5.5 5.5c-0.3 0.4-0.9 0.4-1.2 0l-5.5-5.5c-0.3-0.3-0.3-0.8 0-1.2 0.4-0.3 0.9-0.3 1.2 0l4 4v-8.9c0-0.5 0.4-0.9 0.9-0.9 0.5 0 0.9 0.4 0.9 0.9zm5.2 4.9c0.5 0 0.9 0.3 0.9 0.8 0 0.5-0.4 0.9-0.9 0.9h-12.2c-0.5 0-0.9-0.4-0.9-0.9 0-0.5 0.4-0.8 0.9-0.8z"/>
</svg>