<svg version="1.2" xmlns="http://www.w3.org/2000/svg" viewBox="0 0 18 22" width="15" height="18">
	<title>link-xls-svg</title>
	<style>
		.s0 { fill: none;stroke: #1d7244;stroke-linecap: round;stroke-linejoin: round;stroke-width: 1.5 } 
		.s1 { fill: none;stroke: #1c7244;stroke-linecap: round;stroke-linejoin: round;stroke-width: 1.5 } 
		.s2 { fill: none;stroke: #1f7244;stroke-linecap: round;stroke-linejoin: round;stroke-width: 1.5 } 
		.s3 { fill: none;stroke: #1d7244;stroke-linecap: round;stroke-miterlimit:10;stroke-width: 1.3 } 
	</style>
	<g id="Layer_1_00000093878914065668627710000006464359767022469270_">
		<path id="Layer" fill-rule="evenodd" class="s0" d="m1.5 11.5v-8.2c0-0.2 0.1-0.4 0.2-0.5 0.1-0.1 0.3-0.2 0.5-0.2h9l5.2 5.2v3.7"/>
		<path id="Layer" fill-rule="evenodd" class="s1" d="m11 2.7v5.2h5.2"/>
	</g>
	<g id="Layer">
		<path id="Layer" class="s2" d="m0.9 15.2l3.6 4.6"/>
		<path id="Layer" class="s2" d="m4.5 15.2l-3.6 4.6"/>
	</g>
	<path id="Layer" class="s2" d="m8.2 15.2v4.6h2.8"/>
	<g id="Layer">
		<path id="Layer" fill-rule="evenodd" class="s3" d="m16.3 16c0-0.7-0.6-1-1.4-1-0.7 0-1.4 0.6-1.4 1.3 0 0.7 0.7 1.3 1.4 1.3 0.8 0 1.4 0.6 1.4 1.3 0 0.7-0.6 1.3-1.4 1.3-0.7 0-1.4-0.6-1.4-1.3"/>
	</g>
</svg>