<svg width="44" height="35" viewBox="0 0 44 35" fill="none" xmlns="http://www.w3.org/2000/svg">
<path opacity="1" fill-rule="evenodd" clip-rule="evenodd" d="M14.44 16.264C17.608 17.608 19.528 20.488 19.528 24.424C19.528 29.992 15.592 33.64 10.312 33.64C4.936 33.64 1 29.896 1 24.424C1 21.928 1.384 20.104 3.592 14.824L9.16 1H18.664L14.44 16.264ZM2.66687 14.4443C0.443978 19.7606 0 21.7303 0 24.424C0 27.4084 1.07816 29.9768 2.94071 31.7988C4.80079 33.6185 7.38771 34.64 10.312 34.64C13.1857 34.64 15.7495 33.6442 17.5992 31.8349C19.4524 30.0223 20.528 27.4526 20.528 24.424C20.528 20.4489 18.7112 17.3638 15.6273 15.7231L19.9783 0H8.48471L2.66687 14.4443ZM37.096 16.264C40.264 17.608 42.184 20.488 42.184 24.424C42.184 29.992 38.248 33.64 32.968 33.64C27.592 33.64 23.656 29.896 23.656 24.424C23.656 21.928 24.04 20.104 26.248 14.824L31.816 1H41.32L37.096 16.264ZM25.3229 14.4442C23.1 19.7606 22.656 21.7303 22.656 24.424C22.656 27.4084 23.7342 29.9768 25.5967 31.7988C27.4568 33.6185 30.0437 34.64 32.968 34.64C35.8417 34.64 38.4055 33.6442 40.2552 31.8349C42.1084 30.0223 43.184 27.4526 43.184 24.424C43.184 20.4489 41.3672 17.3638 38.2833 15.7231L42.6343 0H31.1407L25.3229 14.4442Z" fill="#003da5"/>
</svg>
