<svg width="24" height="25" viewBox="0 0 24 25" fill="none" xmlns="http://www.w3.org/2000/svg">
<path fill-rule="evenodd" clip-rule="evenodd" d="M11.4872 4.28504C7.09639 4.28504 3.53846 7.84014 3.53846 12.2237C3.53846 16.6073 7.09639 20.1624 11.4872 20.1624C13.6777 20.1624 15.6599 19.2784 17.0983 17.8466C18.5433 16.4083 19.4359 14.4208 19.4359 12.2237C19.4359 7.84014 15.878 4.28504 11.4872 4.28504ZM2 12.2237C2 6.9888 6.24839 2.74658 11.4872 2.74658C16.726 2.74658 20.9744 6.9888 20.9744 12.2237C20.9744 14.5691 20.1207 16.7163 18.7083 18.3706L21.7744 21.4331C22.075 21.7333 22.0752 22.2204 21.775 22.521C21.4748 22.8215 20.9877 22.8218 20.6872 22.5216L17.6182 19.4562C15.965 20.8559 13.8242 21.7008 11.4872 21.7008C6.24839 21.7008 2 17.4586 2 12.2237Z" fill="#003DA5"/>
</svg>
