<svg width="23" height="26" viewBox="0 0 23 26" fill="none" xmlns="http://www.w3.org/2000/svg">
<path fill-rule="evenodd" clip-rule="evenodd" d="M7.58899 15.8177C6.79805 16.7454 5.6236 17.3333 4.3125 17.3333C1.93077 17.3333 0 15.3932 0 13C0 10.6068 1.93077 8.66667 4.3125 8.66667C5.6236 8.66667 6.79805 9.25456 7.58899 10.1823L14.6705 5.91302C14.4797 5.42358 14.375 4.8907 14.375 4.33333C14.375 1.94011 16.3058 0 18.6875 0C21.0692 0 23 1.94011 23 4.33333C23 6.72656 21.0692 8.66667 18.6875 8.66667C17.3764 8.66667 16.2019 8.07877 15.411 7.15099L8.3295 11.4203C8.52026 11.9098 8.625 12.4426 8.625 13C8.625 13.5574 8.52026 14.0902 8.3295 14.5797L15.411 18.849C16.2019 17.9212 17.3764 17.3333 18.6875 17.3333C21.0692 17.3333 23 19.2734 23 21.6667C23 24.0599 21.0692 26 18.6875 26C16.3058 26 14.375 24.0599 14.375 21.6667C14.375 21.1093 14.4797 20.5764 14.6705 20.087L7.58899 15.8177ZM15.8125 21.6667C15.8125 23.2622 17.0997 24.5556 18.6875 24.5556C20.2753 24.5556 21.5625 23.2622 21.5625 21.6667C21.5625 20.0712 20.2753 18.7778 18.6875 18.7778C17.0997 18.7778 15.8125 20.0712 15.8125 21.6667ZM1.4375 13C1.4375 14.5955 2.72468 15.8889 4.3125 15.8889C5.90032 15.8889 7.1875 14.5955 7.1875 13C7.1875 11.4045 5.90032 10.1111 4.3125 10.1111C2.72468 10.1111 1.4375 11.4045 1.4375 13ZM15.8125 4.33333C15.8125 5.92882 17.0997 7.22222 18.6875 7.22222C20.2753 7.22222 21.5625 5.92882 21.5625 4.33333C21.5625 2.73784 20.2753 1.44444 18.6875 1.44444C17.0997 1.44444 15.8125 2.73784 15.8125 4.33333Z" fill="#003DA7"/>
</svg>
