<svg width="22" height="27" viewBox="0 0 22 27" fill="none" xmlns="http://www.w3.org/2000/svg">
<path d="M20.493 12.6655L2.85116 1.87699C2.70265 1.78538 2.53239 1.73506 2.35794 1.7312C2.18349 1.72734 2.01116 1.77009 1.85875 1.85504C1.70633 1.94 1.57934 2.06407 1.49087 2.21447C1.4024 2.36487 1.35566 2.53616 1.35547 2.71065V24.2876C1.35566 24.4621 1.4024 24.6333 1.49087 24.7837C1.57934 24.9341 1.70633 25.0582 1.85875 25.1432C2.01116 25.2281 2.18349 25.2709 2.35794 25.267C2.53239 25.2632 2.70265 25.2128 2.85116 25.1212L20.493 14.3328C20.6378 14.2471 20.7579 14.1252 20.8413 13.979C20.9246 13.8328 20.9685 13.6674 20.9685 13.4991C20.9685 13.3308 20.9246 13.1654 20.8413 13.0192C20.7579 12.8731 20.6378 12.7511 20.493 12.6655V12.6655Z" stroke="white" stroke-width="1.96155" stroke-linecap="round" stroke-linejoin="round"/>
</svg>
